<?xml version="1.0" encoding="utf-8"?>
<!-- Generator: Adobe Illustrator 22.0.1, SVG Export Plug-In . SVG Version: 6.00 Build 0)  -->
<svg version="1.1" id="Calque_1" xmlns="http://www.w3.org/2000/svg" xmlns:xlink="http://www.w3.org/1999/xlink" x="0px" y="0px"
	 viewBox="0 0 800 300" style="enable-background:new 0 0 800 300;" xml:space="preserve">
<style type="text/css">
	.st0{fill:#616160;}
	.st1{opacity:0.5;fill:#E0E0E0;}
	.st2{fill:none;stroke:#3F3F3F;stroke-width:0.7731;stroke-linecap:round;stroke-linejoin:round;}
	.st3{fill:none;stroke:#3F3F3F;stroke-miterlimit:10;}
	.st4{fill:none;stroke:#FFFFFF;stroke-width:0.3865;stroke-linecap:round;stroke-linejoin:round;}
	.st5{fill:#779FD4;stroke:#3F3F3F;stroke-width:0.7731;stroke-linecap:round;stroke-linejoin:round;}
</style>
<g>
	<polygon class="st0" points="49.1,21.8 49.1,21.8 536.8,21.8 536.8,21.8 	"/>
	<polygon class="st0" points="49.1,46.2 49.1,46.2 536.8,46.2 536.8,46.2 	"/>
	<polygon class="st0" points="49.1,70.6 49.1,70.6 536.8,70.6 536.8,70.6 	"/>
	<polygon class="st0" points="49.1,95 49.1,95 536.8,95 536.8,95 	"/>
	<polygon class="st0" points="49.1,119.4 49.1,119.4 536.8,119.4 536.8,119.4 	"/>
	<polygon class="st0" points="49.1,143.7 49.1,143.7 536.8,143.7 536.8,143.7 	"/>
	<polygon class="st0" points="49.1,168.1 49.1,168.1 536.8,168.1 536.8,168.1 	"/>
	<polygon class="st0" points="49.1,192.5 49.1,192.5 536.8,192.5 536.8,192.5 	"/>
	<polygon class="st0" points="49.1,216.9 49.1,216.9 536.8,216.9 536.8,216.9 	"/>
	<polygon class="st0" points="49.1,241.3 49.1,241.3 536.8,241.3 536.8,241.3 	"/>
	<rect x="536.8" y="21.8" class="st0" width="0" height="243.8"/>
	<rect x="512.4" y="21.8" class="st0" width="0" height="243.8"/>
	<rect x="488" y="21.8" class="st0" width="0" height="243.8"/>
	<rect x="463.6" y="21.8" class="st0" width="0" height="243.8"/>
	<rect x="439.3" y="21.8" class="st0" width="0" height="243.8"/>
	<rect x="414.9" y="21.8" class="st0" width="0" height="243.8"/>
	<rect x="390.5" y="21.8" class="st0" width="0" height="243.8"/>
	<rect x="366.1" y="21.8" class="st0" width="0" height="243.8"/>
	<rect x="341.7" y="21.8" class="st0" width="0" height="243.8"/>
	<rect x="317.3" y="21.8" class="st0" width="0" height="243.8"/>
	<rect x="293" y="21.8" class="st0" width="0" height="243.8"/>
	<rect x="268.6" y="21.8" class="st0" width="0" height="243.8"/>
	<rect x="244.2" y="21.8" class="st0" width="0" height="243.8"/>
	<rect x="219.8" y="21.8" class="st0" width="0" height="243.8"/>
	<rect x="195.4" y="21.8" class="st0" width="0" height="243.8"/>
	<rect x="171" y="21.8" class="st0" width="0" height="243.8"/>
	<rect x="146.7" y="21.8" class="st0" width="0" height="243.8"/>
	<rect x="122.3" y="21.8" class="st0" width="0" height="243.8"/>
	<rect x="97.9" y="21.8" class="st0" width="0" height="243.8"/>
	<rect x="73.5" y="21.8" class="st0" width="0" height="243.8"/>
</g>
<polygon class="st1" points="49.1,265.7 97.9,241.3 146.7,168.1 195.4,168.1 244.2,192.5 292.9,143.7 341.7,119.4 390.5,143.7 
	439.3,95 488,95 536.8,70.6 536.8,265.7 "/>
<path class="st2" d="M99.1,241.3c0,0.7-0.5,1.2-1.2,1.2s-1.2-0.5-1.2-1.2c0-0.7,0.5-1.2,1.2-1.2S99.1,240.6,99.1,241.3z"/>
<path class="st2" d="M147.9,168.1c0,0.7-0.5,1.2-1.2,1.2c-0.7,0-1.2-0.5-1.2-1.2c0-0.7,0.5-1.2,1.2-1.2
	C147.3,166.9,147.9,167.5,147.9,168.1z"/>
<path class="st2" d="M196.6,168.1c0,0.7-0.5,1.2-1.2,1.2c-0.7,0-1.2-0.5-1.2-1.2c0-0.7,0.5-1.2,1.2-1.2
	C196.1,166.9,196.6,167.5,196.6,168.1z"/>
<path class="st2" d="M245.4,192.5c0,0.7-0.5,1.2-1.2,1.2c-0.7,0-1.2-0.5-1.2-1.2c0-0.7,0.5-1.2,1.2-1.2
	C244.9,191.3,245.4,191.8,245.4,192.5z"/>
<path class="st2" d="M294.2,143.7c0,0.7-0.5,1.2-1.2,1.2c-0.7,0-1.2-0.5-1.2-1.2c0-0.7,0.5-1.2,1.2-1.2
	C293.6,142.5,294.2,143.1,294.2,143.7z"/>
<path class="st2" d="M342.9,119.4c0,0.7-0.5,1.2-1.2,1.2c-0.7,0-1.2-0.5-1.2-1.2c0-0.7,0.5-1.2,1.2-1.2
	C342.4,118.1,342.9,118.7,342.9,119.4z"/>
<path class="st2" d="M391.7,143.7c0,0.7-0.5,1.2-1.2,1.2c-0.7,0-1.2-0.5-1.2-1.2c0-0.7,0.5-1.2,1.2-1.2
	C391.2,142.5,391.7,143.1,391.7,143.7z"/>
<path class="st2" d="M440.5,95c0,0.7-0.5,1.2-1.2,1.2c-0.7,0-1.2-0.5-1.2-1.2c0-0.7,0.5-1.2,1.2-1.2C439.9,93.8,440.5,94.3,440.5,95
	z"/>
<path class="st2" d="M489.2,95c0,0.7-0.5,1.2-1.2,1.2c-0.7,0-1.2-0.5-1.2-1.2c0-0.7,0.5-1.2,1.2-1.2C488.7,93.8,489.2,94.3,489.2,95
	z"/>
<path class="st2" d="M538,70.6c0,0.7-0.5,1.2-1.2,1.2c-0.7,0-1.2-0.5-1.2-1.2c0-0.7,0.5-1.2,1.2-1.2C537.5,69.4,538,69.9,538,70.6z"
	/>
<g>
	<polygon class="st3" points="49.1,265.7 49.1,21.8 49.1,265.7 536.8,265.7 	"/>
	<polygon class="st4" points="49.1,265.7 49.1,21.8 49.1,265.7 536.8,265.7 	"/>
</g>
<rect x="73.5" y="265.7" class="st0" width="0" height="6.1"/>
<polygon class="st0" points="49.1,277.9 49.1,277.9 49.1,265.7 "/>
<polygon class="st0" points="97.9,277.9 97.9,277.9 97.9,265.7 "/>
<polygon class="st0" points="146.7,277.9 146.7,277.9 146.7,265.7 "/>
<polygon class="st0" points="195.4,277.9 195.4,277.9 195.4,265.7 "/>
<polygon class="st0" points="244.2,277.9 244.2,277.9 244.2,265.7 "/>
<polygon class="st0" points="292.9,277.9 292.9,277.9 292.9,265.7 "/>
<polygon class="st0" points="341.7,277.9 341.7,277.9 341.7,265.7 "/>
<polygon class="st0" points="390.5,277.9 390.5,277.9 390.5,265.7 "/>
<polygon class="st0" points="439.3,277.9 439.3,277.9 439.3,265.7 "/>
<polygon class="st0" points="488,277.9 488,277.9 488,265.7 "/>
<polygon class="st0" points="536.8,277.9 536.8,277.9 536.8,265.7 "/>
<rect x="122.3" y="265.7" class="st0" width="0" height="6.1"/>
<rect x="171" y="265.7" class="st0" width="0" height="6.1"/>
<rect x="219.8" y="265.7" class="st0" width="0" height="6.1"/>
<rect x="268.6" y="265.7" class="st0" width="0" height="6.1"/>
<rect x="317.3" y="265.7" class="st0" width="0" height="6.1"/>
<rect x="366.1" y="265.7" class="st0" width="0" height="6.1"/>
<rect x="414.9" y="265.7" class="st0" width="0" height="6.1"/>
<rect x="463.6" y="265.7" class="st0" width="0" height="6.1"/>
<rect x="512.4" y="265.7" class="st0" width="0" height="6.1"/>
<polygon class="st0" points="36.9,21.8 49.1,21.8 49.1,21.8 36.9,21.8 "/>
<polygon class="st0" points="43,34 49.1,34 49.1,34 43,34 "/>
<polygon class="st0" points="36.9,46.2 49.1,46.2 49.1,46.2 36.9,46.2 "/>
<polygon class="st0" points="43,58.4 49.1,58.4 49.1,58.4 43,58.4 "/>
<polygon class="st0" points="36.9,70.6 49.1,70.6 49.1,70.6 36.9,70.6 "/>
<polygon class="st0" points="43,82.8 49.1,82.8 49.1,82.8 43,82.8 "/>
<polygon class="st0" points="36.9,95 49.1,95 49.1,95 36.9,95 "/>
<polygon class="st0" points="43,107.2 49.1,107.2 49.1,107.2 43,107.2 "/>
<polygon class="st0" points="36.9,119.4 49.1,119.4 49.1,119.4 36.9,119.4 "/>
<polygon class="st0" points="43,131.6 49.1,131.6 49.1,131.6 43,131.6 "/>
<polygon class="st0" points="36.9,143.7 49.1,143.7 49.1,143.7 36.9,143.7 "/>
<polygon class="st0" points="43,155.9 49.1,155.9 49.1,155.9 43,155.9 "/>
<polygon class="st0" points="36.9,168.1 49.1,168.1 49.1,168.1 36.9,168.1 "/>
<polygon class="st0" points="43,180.3 49.1,180.3 49.1,180.3 43,180.3 "/>
<polygon class="st0" points="36.9,192.5 49.1,192.5 49.1,192.5 36.9,192.5 "/>
<polygon class="st0" points="43,204.7 49.1,204.7 49.1,204.7 43,204.7 "/>
<polygon class="st0" points="36.9,216.9 49.1,216.9 49.1,216.9 36.9,216.9 "/>
<polygon class="st0" points="43,229.1 49.1,229.1 49.1,229.1 43,229.1 "/>
<polygon class="st0" points="36.9,241.3 49.1,241.3 49.1,241.3 36.9,241.3 "/>
<polygon class="st0" points="43,253.5 49.1,253.5 49.1,253.5 43,253.5 "/>
<polygon class="st0" points="36.9,265.7 49.1,265.7 49.1,265.7 36.9,265.7 "/>
<g>
	<g>
		<path class="st0" d="M97.7,288.8v-6.4l-1.1,0.8v-1.3l1.2-0.9h1.2v7.8H97.7z"/>
	</g>
	<g>
		<path class="st0" d="M144.5,283.1c0-0.7,0.3-1.2,0.6-1.6c0.4-0.4,0.9-0.5,1.4-0.5c0.6,0,1.1,0.2,1.5,0.5c0.4,0.3,0.5,0.8,0.5,1.5
			c0,0.3,0,0.6-0.1,0.9c-0.1,0.3-0.2,0.5-0.4,0.8l-2,3h2.5v1.2h-4v-1.1l2.5-3.7c0.1-0.2,0.2-0.3,0.2-0.5c0-0.2,0.1-0.3,0.1-0.5
			c0-0.2-0.1-0.4-0.2-0.6c-0.1-0.2-0.3-0.3-0.6-0.3c-0.2,0-0.4,0.1-0.6,0.3c-0.2,0.2-0.2,0.5-0.3,0.8L144.5,283.1z"/>
	</g>
	<g>
		<path class="st0" d="M196.6,284.8c0.2,0.1,0.4,0.2,0.5,0.3c0.1,0.1,0.2,0.3,0.3,0.4c0.1,0.2,0.1,0.3,0.1,0.5s0,0.4,0,0.6
			c0,0.3,0,0.6-0.1,0.9c-0.1,0.3-0.2,0.5-0.4,0.7c-0.2,0.2-0.4,0.4-0.7,0.5c-0.3,0.1-0.6,0.2-1,0.2c-0.3,0-0.5,0-0.8-0.1
			c-0.2-0.1-0.4-0.2-0.6-0.3c-0.2-0.2-0.3-0.4-0.4-0.6c-0.1-0.2-0.2-0.5-0.2-0.9l1.2-0.2c0,0.6,0.3,0.9,0.8,0.9
			c0.3,0,0.5-0.1,0.6-0.3c0.1-0.2,0.2-0.5,0.2-0.8c0-0.4-0.1-0.7-0.2-0.9c-0.1-0.2-0.4-0.3-0.7-0.3h-0.5v-1h0.5
			c0.3,0,0.6-0.1,0.7-0.3c0.1-0.2,0.2-0.4,0.2-0.8c0-0.1,0-0.3,0-0.4c0-0.1-0.1-0.2-0.1-0.3c-0.1-0.1-0.1-0.2-0.2-0.2
			c-0.1-0.1-0.2-0.1-0.4-0.1c-0.2,0-0.4,0.1-0.6,0.2c-0.1,0.2-0.2,0.4-0.2,0.7c-0.1,0-0.2,0-0.3,0c-0.1,0-0.2,0-0.3-0.1
			c-0.1,0-0.2,0-0.3-0.1c-0.1,0-0.2,0-0.3,0c0.1-0.6,0.3-1.1,0.6-1.4c0.4-0.4,0.8-0.5,1.4-0.5c0.4,0,0.7,0.1,1,0.2
			c0.3,0.1,0.5,0.3,0.6,0.5c0.2,0.2,0.3,0.4,0.3,0.7c0.1,0.3,0.1,0.5,0.1,0.8c0,0.1,0,0.3,0,0.4c0,0.2-0.1,0.3-0.1,0.5
			c-0.1,0.1-0.2,0.3-0.3,0.4C196.9,284.6,196.8,284.7,196.6,284.8z"/>
	</g>
	<g>
		<path class="st0" d="M245.9,287.7v1.1h-1.2v-1.1h-2.8v-1.1l2.2-5.6h1.3l-2.1,5.5h1.5v-2h1.2v2h0.6v1.2H245.9z"/>
	</g>
	<g>
		<path class="st0" d="M292.3,284c0.2-0.1,0.3-0.2,0.5-0.3c0.2,0,0.4-0.1,0.5-0.1c0.3,0,0.6,0.1,0.8,0.2c0.2,0.1,0.4,0.3,0.5,0.5
			c0.1,0.2,0.2,0.5,0.3,0.8c0,0.3,0.1,0.6,0.1,1c0,0.4,0,0.8-0.1,1.2c-0.1,0.4-0.2,0.6-0.3,0.9c-0.2,0.2-0.4,0.4-0.6,0.6
			c-0.3,0.1-0.6,0.2-1,0.2c-0.3,0-0.6,0-0.8-0.1c-0.2-0.1-0.5-0.2-0.6-0.3c-0.2-0.2-0.3-0.4-0.4-0.6c-0.1-0.3-0.2-0.6-0.2-1l1.2-0.1
			c0,0.3,0.1,0.6,0.2,0.7c0.1,0.1,0.3,0.2,0.6,0.2c0.2,0,0.3,0,0.4-0.1c0.1-0.1,0.2-0.2,0.2-0.4c0.1-0.2,0.1-0.3,0.1-0.5
			c0-0.2,0-0.4,0-0.6c0-0.2,0-0.4,0-0.5c0-0.2,0-0.3-0.1-0.4c-0.1-0.1-0.1-0.2-0.2-0.3c-0.1-0.1-0.2-0.1-0.4-0.1
			c-0.1,0-0.3,0-0.4,0.1c-0.1,0.1-0.2,0.2-0.3,0.4h-1.1V281h3.8v1.2h-2.6L292.3,284L292.3,284z"/>
	</g>
	<g>
		<path class="st0" d="M341.7,284.4c0.1,0,0.2-0.1,0.3-0.1c0.1,0,0.2,0,0.3,0c0.2,0,0.5,0.1,0.7,0.2c0.2,0.1,0.4,0.3,0.5,0.4
			c0.1,0.2,0.2,0.4,0.3,0.7c0.1,0.3,0.1,0.6,0.1,0.9c0,0.8-0.2,1.4-0.5,1.8c-0.3,0.4-0.9,0.7-1.6,0.7c-0.7,0-1.2-0.2-1.5-0.6
			c-0.3-0.4-0.5-1-0.5-1.7c0-0.4,0-0.7,0.1-1s0.2-0.6,0.3-0.8c0-0.1,0.1-0.2,0.2-0.4c0.1-0.2,0.2-0.4,0.3-0.7
			c0.1-0.3,0.2-0.5,0.4-0.8c0.1-0.3,0.3-0.6,0.4-0.8c0.1-0.2,0.2-0.4,0.3-0.6c0.1-0.2,0.1-0.3,0.1-0.3h1.4c0,0.1-0.1,0.2-0.2,0.4
			c-0.1,0.2-0.2,0.4-0.3,0.6c-0.1,0.2-0.2,0.4-0.3,0.7c-0.1,0.2-0.2,0.5-0.3,0.7c-0.1,0.2-0.2,0.4-0.3,0.6
			C341.8,284.1,341.7,284.3,341.7,284.4L341.7,284.4z M341.8,285.3c-0.2,0-0.3,0-0.4,0.1c-0.1,0.1-0.2,0.2-0.2,0.3
			c-0.1,0.1-0.1,0.2-0.1,0.4c0,0.2,0,0.3,0,0.5c0,0.4,0,0.7,0.2,0.9c0.1,0.2,0.3,0.3,0.6,0.3c0.3,0,0.5-0.1,0.6-0.3
			c0.1-0.2,0.2-0.5,0.2-1c0-0.4-0.1-0.6-0.2-0.8C342.3,285.4,342.1,285.3,341.8,285.3z"/>
	</g>
	<g>
		<path class="st0" d="M390.2,288.8h-1.3l2.3-6.6h-1.5v1h-1.2V281h4v1.1L390.2,288.8z"/>
	</g>
	<g>
		<path class="st0" d="M441.4,286.6c0,0.4-0.1,0.8-0.2,1.1c-0.1,0.3-0.3,0.5-0.5,0.7c-0.2,0.2-0.4,0.3-0.7,0.4
			c-0.3,0.1-0.5,0.1-0.8,0.1c-0.3,0-0.5,0-0.8-0.1c-0.2-0.1-0.5-0.2-0.7-0.4c-0.2-0.2-0.3-0.4-0.5-0.7c-0.1-0.3-0.2-0.6-0.2-1.1
			c0-0.4,0.1-0.8,0.2-1.1c0.1-0.3,0.3-0.6,0.6-0.7v0c-0.3-0.2-0.5-0.4-0.6-0.7c-0.1-0.3-0.1-0.6-0.1-0.9c0-0.7,0.2-1.2,0.6-1.6
			c0.4-0.4,0.9-0.6,1.4-0.6c0.3,0,0.6,0,0.8,0.1c0.2,0.1,0.5,0.2,0.6,0.4c0.2,0.2,0.3,0.4,0.4,0.7c0.1,0.3,0.1,0.6,0.1,1
			c0,0.4-0.1,0.7-0.2,0.9c-0.1,0.3-0.3,0.5-0.6,0.7v0c0.2,0.1,0.3,0.2,0.4,0.3c0.1,0.1,0.2,0.3,0.2,0.4c0.1,0.2,0.1,0.3,0.1,0.5
			C441.4,286.2,441.4,286.4,441.4,286.6z M439.3,285.3c-0.3,0-0.5,0.1-0.6,0.3c-0.2,0.2-0.2,0.5-0.2,0.9c0,0.5,0.1,0.8,0.2,1
			c0.2,0.2,0.4,0.3,0.6,0.3c0.3,0,0.5-0.1,0.6-0.3c0.1-0.2,0.2-0.5,0.2-0.9C440.1,285.7,439.8,285.3,439.3,285.3z M439.3,282.2
			c-0.3,0-0.5,0.1-0.6,0.3c-0.1,0.2-0.2,0.4-0.2,0.8c0,0.4,0.1,0.7,0.2,0.8c0.1,0.2,0.3,0.2,0.6,0.2c0.5,0,0.8-0.4,0.8-1.1
			c0-0.3-0.1-0.6-0.2-0.8C439.8,282.3,439.6,282.2,439.3,282.2z"/>
	</g>
	<g>
		<path class="st0" d="M488.1,285.5c-0.1,0-0.1,0.1-0.2,0.1c-0.1,0-0.2,0-0.3,0c-0.3,0-0.5-0.1-0.7-0.2c-0.2-0.1-0.4-0.2-0.5-0.4
			c-0.1-0.2-0.2-0.4-0.3-0.7c-0.1-0.3-0.1-0.6-0.1-0.9c0-0.4,0-0.7,0.1-1c0.1-0.3,0.2-0.6,0.4-0.8c0.2-0.2,0.4-0.4,0.6-0.5
			c0.3-0.1,0.6-0.2,0.9-0.2c0.7,0,1.2,0.2,1.5,0.6c0.3,0.4,0.5,1,0.5,1.7c0,0.3,0,0.7-0.1,1c-0.1,0.3-0.2,0.6-0.3,0.8l-1.7,3.7h-1.4
			L488.1,285.5L488.1,285.5z M488.1,284.6c0.3,0,0.5-0.1,0.6-0.3c0.1-0.2,0.2-0.5,0.2-0.9c0-0.4-0.1-0.7-0.2-0.9
			c-0.1-0.2-0.3-0.3-0.6-0.3c-0.3,0-0.5,0.1-0.6,0.3c-0.1,0.2-0.2,0.5-0.2,1c0,0.3,0.1,0.6,0.2,0.8
			C487.5,284.5,487.8,284.6,488.1,284.6z"/>
	</g>
	<g>
		<path class="st0" d="M534.3,288.8v-6.4l-1.1,0.8v-1.3l1.2-0.9h1.2v7.8H534.3z"/>
		<path class="st0" d="M541.2,286.9c0,0.3-0.1,0.6-0.2,0.8c-0.1,0.2-0.3,0.4-0.4,0.6c-0.2,0.2-0.4,0.3-0.6,0.4
			c-0.2,0.1-0.5,0.1-0.8,0.1c-0.3,0-0.5,0-0.8-0.1c-0.2-0.1-0.5-0.2-0.6-0.4c-0.2-0.2-0.3-0.4-0.4-0.6c-0.1-0.2-0.2-0.5-0.2-0.8v-4
			c0-0.3,0.1-0.6,0.2-0.8c0.1-0.2,0.3-0.4,0.4-0.6c0.2-0.2,0.4-0.3,0.6-0.4c0.2-0.1,0.5-0.1,0.8-0.1c0.3,0,0.5,0,0.8,0.1
			c0.2,0.1,0.5,0.2,0.6,0.4c0.2,0.2,0.3,0.4,0.4,0.6c0.1,0.2,0.2,0.5,0.2,0.8V286.9z M539.9,282.9c0-0.2-0.1-0.4-0.2-0.6
			c-0.1-0.1-0.3-0.2-0.6-0.2c-0.2,0-0.4,0.1-0.6,0.2c-0.1,0.1-0.2,0.3-0.2,0.6v4c0,0.3,0.1,0.4,0.2,0.6c0.1,0.1,0.3,0.2,0.6,0.2
			c0.2,0,0.4-0.1,0.6-0.2c0.1-0.1,0.2-0.3,0.2-0.6V282.9z"/>
	</g>
	<g>
		<path class="st0" d="M21.9,241.3v-6.4l-1.1,0.8v-1.3l1.2-0.9h1.2v7.8H21.9z"/>
		<path class="st0" d="M28.8,239.4c0,0.3-0.1,0.6-0.2,0.8c-0.1,0.2-0.3,0.4-0.4,0.6c-0.2,0.2-0.4,0.3-0.6,0.4
			c-0.2,0.1-0.5,0.1-0.8,0.1c-0.3,0-0.5,0-0.8-0.1c-0.2-0.1-0.5-0.2-0.6-0.4c-0.2-0.2-0.3-0.4-0.4-0.6c-0.1-0.2-0.2-0.5-0.2-0.8v-4
			c0-0.3,0.1-0.6,0.2-0.8c0.1-0.2,0.3-0.4,0.4-0.6c0.2-0.2,0.4-0.3,0.6-0.4c0.2-0.1,0.5-0.1,0.8-0.1c0.3,0,0.5,0,0.8,0.1
			c0.2,0.1,0.5,0.2,0.6,0.4c0.2,0.2,0.3,0.4,0.4,0.6c0.1,0.2,0.2,0.5,0.2,0.8V239.4z M27.6,235.4c0-0.2-0.1-0.4-0.2-0.6
			c-0.1-0.1-0.3-0.2-0.6-0.2c-0.2,0-0.4,0.1-0.6,0.2c-0.1,0.1-0.2,0.3-0.2,0.6v4c0,0.3,0.1,0.4,0.2,0.6c0.1,0.1,0.3,0.2,0.6,0.2
			c0.2,0,0.4-0.1,0.6-0.2c0.1-0.1,0.2-0.3,0.2-0.6V235.4z"/>
		<path class="st0" d="M33.9,239.4c0,0.3-0.1,0.6-0.2,0.8c-0.1,0.2-0.3,0.4-0.4,0.6c-0.2,0.2-0.4,0.3-0.6,0.4
			c-0.2,0.1-0.5,0.1-0.8,0.1c-0.3,0-0.5,0-0.8-0.1c-0.2-0.1-0.5-0.2-0.6-0.4c-0.2-0.2-0.3-0.4-0.4-0.6c-0.1-0.2-0.2-0.5-0.2-0.8v-4
			c0-0.3,0.1-0.6,0.2-0.8c0.1-0.2,0.3-0.4,0.4-0.6c0.2-0.2,0.4-0.3,0.6-0.4c0.2-0.1,0.5-0.1,0.8-0.1c0.3,0,0.5,0,0.8,0.1
			c0.2,0.1,0.5,0.2,0.6,0.4c0.2,0.2,0.3,0.4,0.4,0.6c0.1,0.2,0.2,0.5,0.2,0.8V239.4z M32.7,235.4c0-0.2-0.1-0.4-0.2-0.6
			c-0.1-0.1-0.3-0.2-0.6-0.2c-0.2,0-0.4,0.1-0.6,0.2c-0.1,0.1-0.2,0.3-0.2,0.6v4c0,0.3,0.1,0.4,0.2,0.6c0.1,0.1,0.3,0.2,0.6,0.2
			c0.2,0,0.4-0.1,0.6-0.2c0.1-0.1,0.2-0.3,0.2-0.6V235.4z"/>
	</g>
	<g>
		<path class="st0" d="M19.6,211.2c0-0.7,0.3-1.2,0.6-1.6c0.4-0.4,0.9-0.6,1.4-0.6c0.6,0,1.1,0.2,1.5,0.5c0.4,0.3,0.5,0.8,0.5,1.5
			c0,0.3,0,0.6-0.1,0.9c-0.1,0.3-0.2,0.5-0.4,0.8l-2,3h2.5v1.2h-4v-1.1l2.5-3.7c0.1-0.2,0.2-0.3,0.2-0.5c0-0.2,0.1-0.3,0.1-0.5
			c0-0.2-0.1-0.4-0.2-0.6c-0.1-0.2-0.3-0.3-0.6-0.3c-0.2,0-0.4,0.1-0.6,0.3c-0.1,0.2-0.2,0.5-0.3,0.8L19.6,211.2z"/>
		<path class="st0" d="M28.8,215c0,0.3-0.1,0.6-0.2,0.8c-0.1,0.2-0.3,0.4-0.4,0.6c-0.2,0.2-0.4,0.3-0.6,0.4
			c-0.2,0.1-0.5,0.1-0.8,0.1c-0.3,0-0.5,0-0.8-0.1c-0.2-0.1-0.5-0.2-0.6-0.4c-0.2-0.2-0.3-0.4-0.4-0.6c-0.1-0.2-0.2-0.5-0.2-0.8v-4
			c0-0.3,0.1-0.6,0.2-0.8c0.1-0.2,0.3-0.4,0.4-0.6c0.2-0.2,0.4-0.3,0.6-0.4c0.2-0.1,0.5-0.1,0.8-0.1c0.3,0,0.5,0,0.8,0.1
			c0.2,0.1,0.5,0.2,0.6,0.4c0.2,0.2,0.3,0.4,0.4,0.6c0.1,0.2,0.2,0.5,0.2,0.8V215z M27.6,211c0-0.2-0.1-0.4-0.2-0.6
			c-0.1-0.1-0.3-0.2-0.6-0.2c-0.2,0-0.4,0.1-0.6,0.2c-0.1,0.1-0.2,0.3-0.2,0.6v4c0,0.3,0.1,0.4,0.2,0.6c0.1,0.1,0.3,0.2,0.6,0.2
			c0.2,0,0.4-0.1,0.6-0.2c0.1-0.1,0.2-0.3,0.2-0.6V211z"/>
		<path class="st0" d="M33.9,215c0,0.3-0.1,0.6-0.2,0.8c-0.1,0.2-0.3,0.4-0.4,0.6c-0.2,0.2-0.4,0.3-0.6,0.4
			c-0.2,0.1-0.5,0.1-0.8,0.1c-0.3,0-0.5,0-0.8-0.1c-0.2-0.1-0.5-0.2-0.6-0.4c-0.2-0.2-0.3-0.4-0.4-0.6c-0.1-0.2-0.2-0.5-0.2-0.8v-4
			c0-0.3,0.1-0.6,0.2-0.8c0.1-0.2,0.3-0.4,0.4-0.6c0.2-0.2,0.4-0.3,0.6-0.4c0.2-0.1,0.5-0.1,0.8-0.1c0.3,0,0.5,0,0.8,0.1
			c0.2,0.1,0.5,0.2,0.6,0.4c0.2,0.2,0.3,0.4,0.4,0.6c0.1,0.2,0.2,0.5,0.2,0.8V215z M32.7,211c0-0.2-0.1-0.4-0.2-0.6
			c-0.1-0.1-0.3-0.2-0.6-0.2c-0.2,0-0.4,0.1-0.6,0.2c-0.1,0.1-0.2,0.3-0.2,0.6v4c0,0.3,0.1,0.4,0.2,0.6c0.1,0.1,0.3,0.2,0.6,0.2
			c0.2,0,0.4-0.1,0.6-0.2c0.1-0.1,0.2-0.3,0.2-0.6V211z"/>
	</g>
	<g>
		<path class="st0" d="M22.8,188.5c0.2,0.1,0.4,0.2,0.5,0.3c0.1,0.1,0.2,0.3,0.3,0.4c0.1,0.2,0.1,0.3,0.1,0.5c0,0.2,0,0.4,0,0.6
			c0,0.3,0,0.6-0.1,0.9c-0.1,0.3-0.2,0.5-0.4,0.7c-0.2,0.2-0.4,0.4-0.7,0.5c-0.3,0.1-0.6,0.2-1,0.2c-0.3,0-0.5,0-0.8-0.1
			c-0.2-0.1-0.4-0.2-0.6-0.3c-0.2-0.2-0.3-0.4-0.4-0.6s-0.2-0.5-0.2-0.9l1.2-0.2c0,0.6,0.3,0.9,0.8,0.9c0.3,0,0.5-0.1,0.6-0.3
			c0.1-0.2,0.2-0.5,0.2-0.8c0-0.4-0.1-0.7-0.2-0.9c-0.1-0.2-0.4-0.3-0.7-0.3H21v-1h0.5c0.3,0,0.6-0.1,0.7-0.3
			c0.1-0.2,0.2-0.4,0.2-0.8c0-0.1,0-0.3,0-0.4c0-0.1-0.1-0.2-0.1-0.3c-0.1-0.1-0.1-0.2-0.2-0.2c-0.1-0.1-0.2-0.1-0.4-0.1
			c-0.2,0-0.4,0.1-0.6,0.2c-0.1,0.2-0.2,0.4-0.2,0.7c-0.1,0-0.2,0-0.3,0c-0.1,0-0.2,0-0.3-0.1c-0.1,0-0.2,0-0.3-0.1
			c-0.1,0-0.2,0-0.3,0c0.1-0.6,0.3-1.1,0.6-1.4c0.4-0.4,0.8-0.5,1.4-0.5c0.4,0,0.7,0.1,1,0.2c0.3,0.1,0.5,0.3,0.6,0.5
			c0.2,0.2,0.3,0.4,0.3,0.7c0.1,0.3,0.1,0.5,0.1,0.8c0,0.1,0,0.3,0,0.4c0,0.2-0.1,0.3-0.1,0.5c-0.1,0.1-0.2,0.3-0.3,0.4
			C23.1,188.3,23,188.4,22.8,188.5z"/>
		<path class="st0" d="M28.8,190.6c0,0.3-0.1,0.6-0.2,0.8c-0.1,0.2-0.3,0.4-0.4,0.6c-0.2,0.2-0.4,0.3-0.6,0.4
			c-0.2,0.1-0.5,0.1-0.8,0.1c-0.3,0-0.5,0-0.8-0.1c-0.2-0.1-0.5-0.2-0.6-0.4c-0.2-0.2-0.3-0.4-0.4-0.6c-0.1-0.2-0.2-0.5-0.2-0.8v-4
			c0-0.3,0.1-0.6,0.2-0.8c0.1-0.2,0.3-0.4,0.4-0.6c0.2-0.2,0.4-0.3,0.6-0.4s0.5-0.1,0.8-0.1c0.3,0,0.5,0,0.8,0.1
			c0.2,0.1,0.5,0.2,0.6,0.4c0.2,0.2,0.3,0.4,0.4,0.6c0.1,0.2,0.2,0.5,0.2,0.8V190.6z M27.6,186.6c0-0.2-0.1-0.4-0.2-0.6
			c-0.1-0.1-0.3-0.2-0.6-0.2c-0.2,0-0.4,0.1-0.6,0.2c-0.1,0.1-0.2,0.3-0.2,0.6v4c0,0.3,0.1,0.4,0.2,0.6c0.1,0.1,0.3,0.2,0.6,0.2
			c0.2,0,0.4-0.1,0.6-0.2c0.1-0.1,0.2-0.3,0.2-0.6V186.6z"/>
		<path class="st0" d="M33.9,190.6c0,0.3-0.1,0.6-0.2,0.8c-0.1,0.2-0.3,0.4-0.4,0.6c-0.2,0.2-0.4,0.3-0.6,0.4
			c-0.2,0.1-0.5,0.1-0.8,0.1c-0.3,0-0.5,0-0.8-0.1c-0.2-0.1-0.5-0.2-0.6-0.4c-0.2-0.2-0.3-0.4-0.4-0.6c-0.1-0.2-0.2-0.5-0.2-0.8v-4
			c0-0.3,0.1-0.6,0.2-0.8c0.1-0.2,0.3-0.4,0.4-0.6c0.2-0.2,0.4-0.3,0.6-0.4s0.5-0.1,0.8-0.1c0.3,0,0.5,0,0.8,0.1
			c0.2,0.1,0.5,0.2,0.6,0.4c0.2,0.2,0.3,0.4,0.4,0.6c0.1,0.2,0.2,0.5,0.2,0.8V190.6z M32.7,186.6c0-0.2-0.1-0.4-0.2-0.6
			c-0.1-0.1-0.3-0.2-0.6-0.2c-0.2,0-0.4,0.1-0.6,0.2c-0.1,0.1-0.2,0.3-0.2,0.6v4c0,0.3,0.1,0.4,0.2,0.6c0.1,0.1,0.3,0.2,0.6,0.2
			c0.2,0,0.4-0.1,0.6-0.2c0.1-0.1,0.2-0.3,0.2-0.6V186.6z"/>
	</g>
	<g>
		<path class="st0" d="M23.2,167v1.1H22V167h-2.8v-1.1l2.2-5.6h1.3l-2.1,5.5H22v-2h1.2v2h0.6v1.2H23.2z"/>
		<path class="st0" d="M28.8,166.2c0,0.3-0.1,0.6-0.2,0.8c-0.1,0.2-0.3,0.4-0.4,0.6c-0.2,0.2-0.4,0.3-0.6,0.4
			c-0.2,0.1-0.5,0.1-0.8,0.1c-0.3,0-0.5,0-0.8-0.1c-0.2-0.1-0.5-0.2-0.6-0.4c-0.2-0.2-0.3-0.4-0.4-0.6c-0.1-0.2-0.2-0.5-0.2-0.8v-4
			c0-0.3,0.1-0.6,0.2-0.8c0.1-0.2,0.3-0.4,0.4-0.6c0.2-0.2,0.4-0.3,0.6-0.4c0.2-0.1,0.5-0.1,0.8-0.1c0.3,0,0.5,0,0.8,0.1
			c0.2,0.1,0.5,0.2,0.6,0.4c0.2,0.2,0.3,0.4,0.4,0.6c0.1,0.2,0.2,0.5,0.2,0.8V166.2z M27.6,162.3c0-0.2-0.1-0.4-0.2-0.6
			c-0.1-0.1-0.3-0.2-0.6-0.2c-0.2,0-0.4,0.1-0.6,0.2c-0.1,0.1-0.2,0.3-0.2,0.6v4c0,0.3,0.1,0.4,0.2,0.6c0.1,0.1,0.3,0.2,0.6,0.2
			c0.2,0,0.4-0.1,0.6-0.2c0.1-0.1,0.2-0.3,0.2-0.6V162.3z"/>
		<path class="st0" d="M33.9,166.2c0,0.3-0.1,0.6-0.2,0.8c-0.1,0.2-0.3,0.4-0.4,0.6c-0.2,0.2-0.4,0.3-0.6,0.4
			c-0.2,0.1-0.5,0.1-0.8,0.1c-0.3,0-0.5,0-0.8-0.1c-0.2-0.1-0.5-0.2-0.6-0.4c-0.2-0.2-0.3-0.4-0.4-0.6c-0.1-0.2-0.2-0.5-0.2-0.8v-4
			c0-0.3,0.1-0.6,0.2-0.8c0.1-0.2,0.3-0.4,0.4-0.6c0.2-0.2,0.4-0.3,0.6-0.4c0.2-0.1,0.5-0.1,0.8-0.1c0.3,0,0.5,0,0.8,0.1
			c0.2,0.1,0.5,0.2,0.6,0.4c0.2,0.2,0.3,0.4,0.4,0.6c0.1,0.2,0.2,0.5,0.2,0.8V166.2z M32.7,162.3c0-0.2-0.1-0.4-0.2-0.6
			c-0.1-0.1-0.3-0.2-0.6-0.2c-0.2,0-0.4,0.1-0.6,0.2c-0.1,0.1-0.2,0.3-0.2,0.6v4c0,0.3,0.1,0.4,0.2,0.6c0.1,0.1,0.3,0.2,0.6,0.2
			c0.2,0,0.4-0.1,0.6-0.2c0.1-0.1,0.2-0.3,0.2-0.6V162.3z"/>
	</g>
	<g>
		<path class="st0" d="M21,138.9c0.2-0.2,0.3-0.2,0.5-0.3c0.2,0,0.4-0.1,0.5-0.1c0.3,0,0.6,0.1,0.8,0.2c0.2,0.1,0.4,0.3,0.5,0.5
			c0.1,0.2,0.2,0.5,0.3,0.8c0,0.3,0.1,0.6,0.1,1c0,0.4,0,0.8-0.1,1.2c-0.1,0.3-0.2,0.6-0.3,0.9c-0.2,0.2-0.4,0.4-0.6,0.6
			c-0.3,0.1-0.6,0.2-1,0.2c-0.3,0-0.6,0-0.8-0.1c-0.2-0.1-0.5-0.2-0.6-0.3c-0.2-0.2-0.3-0.4-0.4-0.6c-0.1-0.3-0.2-0.6-0.2-1l1.2-0.1
			c0,0.3,0.1,0.6,0.2,0.7c0.1,0.1,0.3,0.2,0.6,0.2c0.2,0,0.3,0,0.4-0.1c0.1-0.1,0.2-0.2,0.2-0.4c0.1-0.2,0.1-0.3,0.1-0.5
			c0-0.2,0-0.4,0-0.6c0-0.2,0-0.4,0-0.5c0-0.2,0-0.3-0.1-0.4c-0.1-0.1-0.1-0.2-0.2-0.3c-0.1-0.1-0.2-0.1-0.4-0.1
			c-0.1,0-0.3,0-0.4,0.1c-0.1,0.1-0.2,0.2-0.3,0.4h-1.1V136h3.8v1.2H21L21,138.9L21,138.9z"/>
		<path class="st0" d="M28.8,141.9c0,0.3-0.1,0.6-0.2,0.8c-0.1,0.2-0.3,0.4-0.4,0.6c-0.2,0.2-0.4,0.3-0.6,0.4
			c-0.2,0.1-0.5,0.1-0.8,0.1c-0.3,0-0.5,0-0.8-0.1c-0.2-0.1-0.5-0.2-0.6-0.4c-0.2-0.2-0.3-0.4-0.4-0.6c-0.1-0.2-0.2-0.5-0.2-0.8v-4
			c0-0.3,0.1-0.6,0.2-0.8c0.1-0.2,0.3-0.4,0.4-0.6c0.2-0.2,0.4-0.3,0.6-0.4c0.2-0.1,0.5-0.1,0.8-0.1c0.3,0,0.5,0,0.8,0.1
			c0.2,0.1,0.5,0.2,0.6,0.4c0.2,0.2,0.3,0.4,0.4,0.6c0.1,0.2,0.2,0.5,0.2,0.8V141.9z M27.6,137.9c0-0.2-0.1-0.4-0.2-0.6
			c-0.1-0.1-0.3-0.2-0.6-0.2c-0.2,0-0.4,0.1-0.6,0.2c-0.1,0.1-0.2,0.3-0.2,0.6v4c0,0.3,0.1,0.4,0.2,0.6c0.1,0.1,0.3,0.2,0.6,0.2
			c0.2,0,0.4-0.1,0.6-0.2c0.1-0.1,0.2-0.3,0.2-0.6V137.9z"/>
		<path class="st0" d="M33.9,141.9c0,0.3-0.1,0.6-0.2,0.8c-0.1,0.2-0.3,0.4-0.4,0.6c-0.2,0.2-0.4,0.3-0.6,0.4
			c-0.2,0.1-0.5,0.1-0.8,0.1c-0.3,0-0.5,0-0.8-0.1c-0.2-0.1-0.5-0.2-0.6-0.4c-0.2-0.2-0.3-0.4-0.4-0.6c-0.1-0.2-0.2-0.5-0.2-0.8v-4
			c0-0.3,0.1-0.6,0.2-0.8c0.1-0.2,0.3-0.4,0.4-0.6c0.2-0.2,0.4-0.3,0.6-0.4c0.2-0.1,0.5-0.1,0.8-0.1c0.3,0,0.5,0,0.8,0.1
			c0.2,0.1,0.5,0.2,0.6,0.4c0.2,0.2,0.3,0.4,0.4,0.6c0.1,0.2,0.2,0.5,0.2,0.8V141.9z M32.7,137.9c0-0.2-0.1-0.4-0.2-0.6
			c-0.1-0.1-0.3-0.2-0.6-0.2c-0.2,0-0.4,0.1-0.6,0.2c-0.1,0.1-0.2,0.3-0.2,0.6v4c0,0.3,0.1,0.4,0.2,0.6c0.1,0.1,0.3,0.2,0.6,0.2
			c0.2,0,0.4-0.1,0.6-0.2c0.1-0.1,0.2-0.3,0.2-0.6V137.9z"/>
	</g>
	<g>
		<path class="st0" d="M21.6,114.9c0.1,0,0.2-0.1,0.3-0.1c0.1,0,0.2,0,0.3,0c0.2,0,0.5,0.1,0.7,0.2c0.2,0.1,0.4,0.3,0.5,0.4
			c0.1,0.2,0.2,0.4,0.3,0.7c0.1,0.3,0.1,0.6,0.1,0.9c0,0.8-0.2,1.4-0.5,1.8c-0.3,0.4-0.9,0.7-1.6,0.7c-0.7,0-1.2-0.2-1.5-0.6
			c-0.3-0.4-0.5-1-0.5-1.7c0-0.4,0-0.7,0.1-1c0.1-0.3,0.2-0.6,0.3-0.8c0-0.1,0.1-0.2,0.2-0.4c0.1-0.2,0.2-0.4,0.3-0.7
			s0.2-0.5,0.4-0.8c0.1-0.3,0.2-0.6,0.4-0.8c0.1-0.2,0.2-0.4,0.3-0.6c0.1-0.2,0.1-0.3,0.1-0.3h1.4c0,0.1-0.1,0.2-0.2,0.4
			c-0.1,0.2-0.2,0.4-0.3,0.6c-0.1,0.2-0.2,0.4-0.3,0.7c-0.1,0.2-0.2,0.5-0.3,0.7c-0.1,0.2-0.2,0.4-0.3,0.6
			C21.7,114.7,21.6,114.8,21.6,114.9L21.6,114.9z M21.7,115.8c-0.2,0-0.3,0-0.4,0.1c-0.1,0.1-0.2,0.2-0.2,0.3
			c-0.1,0.1-0.1,0.2-0.1,0.4c0,0.2,0,0.3,0,0.5c0,0.4,0.1,0.7,0.2,0.9c0.1,0.2,0.3,0.3,0.6,0.3c0.3,0,0.5-0.1,0.6-0.3
			c0.1-0.2,0.2-0.5,0.2-1c0-0.4-0.1-0.6-0.2-0.8C22.2,115.9,22,115.8,21.7,115.8z"/>
		<path class="st0" d="M28.8,117.5c0,0.3-0.1,0.6-0.2,0.8c-0.1,0.2-0.3,0.4-0.4,0.6c-0.2,0.2-0.4,0.3-0.6,0.4
			c-0.2,0.1-0.5,0.1-0.8,0.1c-0.3,0-0.5,0-0.8-0.1c-0.2-0.1-0.5-0.2-0.6-0.4s-0.3-0.4-0.4-0.6c-0.1-0.2-0.2-0.5-0.2-0.8v-4
			c0-0.3,0.1-0.6,0.2-0.8c0.1-0.2,0.3-0.4,0.4-0.6c0.2-0.2,0.4-0.3,0.6-0.4c0.2-0.1,0.5-0.1,0.8-0.1c0.3,0,0.5,0,0.8,0.1
			c0.2,0.1,0.5,0.2,0.6,0.4c0.2,0.2,0.3,0.4,0.4,0.6c0.1,0.2,0.2,0.5,0.2,0.8V117.5z M27.6,113.5c0-0.2-0.1-0.4-0.2-0.6
			c-0.1-0.1-0.3-0.2-0.6-0.2c-0.2,0-0.4,0.1-0.6,0.2c-0.1,0.1-0.2,0.3-0.2,0.6v4c0,0.3,0.1,0.4,0.2,0.6c0.1,0.1,0.3,0.2,0.6,0.2
			c0.2,0,0.4-0.1,0.6-0.2c0.1-0.1,0.2-0.3,0.2-0.6V113.5z"/>
		<path class="st0" d="M33.9,117.5c0,0.3-0.1,0.6-0.2,0.8c-0.1,0.2-0.3,0.4-0.4,0.6c-0.2,0.2-0.4,0.3-0.6,0.4
			c-0.2,0.1-0.5,0.1-0.8,0.1c-0.3,0-0.5,0-0.8-0.1c-0.2-0.1-0.5-0.2-0.6-0.4s-0.3-0.4-0.4-0.6c-0.1-0.2-0.2-0.5-0.2-0.8v-4
			c0-0.3,0.1-0.6,0.2-0.8c0.1-0.2,0.3-0.4,0.4-0.6c0.2-0.2,0.4-0.3,0.6-0.4c0.2-0.1,0.5-0.1,0.8-0.1c0.3,0,0.5,0,0.8,0.1
			c0.2,0.1,0.5,0.2,0.6,0.4c0.2,0.2,0.3,0.4,0.4,0.6c0.1,0.2,0.2,0.5,0.2,0.8V117.5z M32.7,113.5c0-0.2-0.1-0.4-0.2-0.6
			c-0.1-0.1-0.3-0.2-0.6-0.2c-0.2,0-0.4,0.1-0.6,0.2c-0.1,0.1-0.2,0.3-0.2,0.6v4c0,0.3,0.1,0.4,0.2,0.6c0.1,0.1,0.3,0.2,0.6,0.2
			c0.2,0,0.4-0.1,0.6-0.2c0.1-0.1,0.2-0.3,0.2-0.6V113.5z"/>
	</g>
	<g>
		<path class="st0" d="M21.4,95h-1.3l2.3-6.6h-1.5v1h-1.2v-2.1h4v1.1L21.4,95z"/>
		<path class="st0" d="M28.8,93.1c0,0.3-0.1,0.6-0.2,0.8c-0.1,0.2-0.3,0.4-0.4,0.6c-0.2,0.2-0.4,0.3-0.6,0.4C27.3,95,27,95,26.8,95
			c-0.3,0-0.5,0-0.8-0.1c-0.2-0.1-0.5-0.2-0.6-0.4c-0.2-0.2-0.3-0.4-0.4-0.6c-0.1-0.2-0.2-0.5-0.2-0.8v-4c0-0.3,0.1-0.6,0.2-0.8
			c0.1-0.2,0.3-0.4,0.4-0.6c0.2-0.2,0.4-0.3,0.6-0.4c0.2-0.1,0.5-0.1,0.8-0.1c0.3,0,0.5,0,0.8,0.1c0.2,0.1,0.5,0.2,0.6,0.4
			c0.2,0.2,0.3,0.4,0.4,0.6c0.1,0.2,0.2,0.5,0.2,0.8V93.1z M27.6,89.1c0-0.2-0.1-0.4-0.2-0.6c-0.1-0.1-0.3-0.2-0.6-0.2
			c-0.2,0-0.4,0.1-0.6,0.2c-0.1,0.1-0.2,0.3-0.2,0.6v4c0,0.3,0.1,0.4,0.2,0.6c0.1,0.1,0.3,0.2,0.6,0.2c0.2,0,0.4-0.1,0.6-0.2
			c0.1-0.1,0.2-0.3,0.2-0.6V89.1z"/>
		<path class="st0" d="M33.9,93.1c0,0.3-0.1,0.6-0.2,0.8c-0.1,0.2-0.3,0.4-0.4,0.6c-0.2,0.2-0.4,0.3-0.6,0.4
			C32.4,95,32.2,95,31.9,95c-0.3,0-0.5,0-0.8-0.1c-0.2-0.1-0.5-0.2-0.6-0.4c-0.2-0.2-0.3-0.4-0.4-0.6c-0.1-0.2-0.2-0.5-0.2-0.8v-4
			c0-0.3,0.1-0.6,0.2-0.8c0.1-0.2,0.3-0.4,0.4-0.6c0.2-0.2,0.4-0.3,0.6-0.4c0.2-0.1,0.5-0.1,0.8-0.1c0.3,0,0.5,0,0.8,0.1
			c0.2,0.1,0.5,0.2,0.6,0.4c0.2,0.2,0.3,0.4,0.4,0.6c0.1,0.2,0.2,0.5,0.2,0.8V93.1z M32.7,89.1c0-0.2-0.1-0.4-0.2-0.6
			c-0.1-0.1-0.3-0.2-0.6-0.2c-0.2,0-0.4,0.1-0.6,0.2c-0.1,0.1-0.2,0.3-0.2,0.6v4c0,0.3,0.1,0.4,0.2,0.6c0.1,0.1,0.3,0.2,0.6,0.2
			c0.2,0,0.4-0.1,0.6-0.2c0.1-0.1,0.2-0.3,0.2-0.6V89.1z"/>
	</g>
	<g>
		<path class="st0" d="M23.7,68.4c0,0.4-0.1,0.8-0.2,1.1c-0.1,0.3-0.3,0.5-0.5,0.7c-0.2,0.2-0.4,0.3-0.7,0.4
			c-0.3,0.1-0.5,0.1-0.8,0.1c-0.3,0-0.6,0-0.8-0.1c-0.2-0.1-0.5-0.2-0.7-0.4c-0.2-0.2-0.3-0.4-0.5-0.7c-0.1-0.3-0.2-0.7-0.2-1.1
			c0-0.4,0.1-0.8,0.2-1.1c0.1-0.3,0.3-0.6,0.7-0.7v0c-0.3-0.2-0.5-0.4-0.6-0.7c-0.1-0.3-0.1-0.6-0.1-0.9c0-0.7,0.2-1.2,0.6-1.6
			c0.4-0.4,0.9-0.6,1.4-0.6c0.3,0,0.6,0,0.8,0.1c0.2,0.1,0.5,0.2,0.6,0.4c0.2,0.2,0.3,0.4,0.4,0.7c0.1,0.3,0.1,0.6,0.1,1
			c0,0.4-0.1,0.7-0.2,0.9c-0.1,0.3-0.3,0.5-0.6,0.7v0c0.2,0.1,0.3,0.2,0.4,0.3c0.1,0.1,0.2,0.3,0.2,0.4c0.1,0.2,0.1,0.3,0.1,0.5
			C23.7,68,23.7,68.2,23.7,68.4z M21.6,67.1c-0.3,0-0.5,0.1-0.6,0.3c-0.2,0.2-0.2,0.5-0.2,0.9c0,0.5,0.1,0.8,0.2,1
			c0.2,0.2,0.4,0.3,0.6,0.3c0.3,0,0.5-0.1,0.6-0.3c0.1-0.2,0.2-0.5,0.2-0.9C22.5,67.5,22.2,67.1,21.6,67.1z M21.6,63.9
			c-0.3,0-0.5,0.1-0.6,0.3c-0.1,0.2-0.2,0.4-0.2,0.8c0,0.4,0.1,0.7,0.2,0.8c0.1,0.2,0.3,0.2,0.6,0.2c0.5,0,0.8-0.4,0.8-1.1
			c0-0.3-0.1-0.6-0.2-0.8C22.1,64,21.9,63.9,21.6,63.9z"/>
		<path class="st0" d="M28.8,68.7c0,0.3-0.1,0.6-0.2,0.8c-0.1,0.2-0.3,0.4-0.4,0.6c-0.2,0.2-0.4,0.3-0.6,0.4
			c-0.2,0.1-0.5,0.1-0.8,0.1c-0.3,0-0.5,0-0.8-0.1c-0.2-0.1-0.5-0.2-0.6-0.4c-0.2-0.2-0.3-0.4-0.4-0.6c-0.1-0.2-0.2-0.5-0.2-0.8v-4
			c0-0.3,0.1-0.6,0.2-0.8c0.1-0.2,0.3-0.4,0.4-0.6c0.2-0.2,0.4-0.3,0.6-0.4c0.2-0.1,0.5-0.1,0.8-0.1c0.3,0,0.5,0,0.8,0.1
			c0.2,0.1,0.5,0.2,0.6,0.4c0.2,0.2,0.3,0.4,0.4,0.6c0.1,0.2,0.2,0.5,0.2,0.8V68.7z M27.6,64.7c0-0.2-0.1-0.4-0.2-0.6
			c-0.1-0.1-0.3-0.2-0.6-0.2c-0.2,0-0.4,0.1-0.6,0.2c-0.1,0.1-0.2,0.3-0.2,0.6v4c0,0.3,0.1,0.4,0.2,0.6c0.1,0.1,0.3,0.2,0.6,0.2
			c0.2,0,0.4-0.1,0.6-0.2c0.1-0.1,0.2-0.3,0.2-0.6V64.7z"/>
		<path class="st0" d="M33.9,68.7c0,0.3-0.1,0.6-0.2,0.8c-0.1,0.2-0.3,0.4-0.4,0.6c-0.2,0.2-0.4,0.3-0.6,0.4
			c-0.2,0.1-0.5,0.1-0.8,0.1c-0.3,0-0.5,0-0.8-0.1c-0.2-0.1-0.5-0.2-0.6-0.4c-0.2-0.2-0.3-0.4-0.4-0.6c-0.1-0.2-0.2-0.5-0.2-0.8v-4
			c0-0.3,0.1-0.6,0.2-0.8c0.1-0.2,0.3-0.4,0.4-0.6c0.2-0.2,0.4-0.3,0.6-0.4c0.2-0.1,0.5-0.1,0.8-0.1c0.3,0,0.5,0,0.8,0.1
			c0.2,0.1,0.5,0.2,0.6,0.4c0.2,0.2,0.3,0.4,0.4,0.6c0.1,0.2,0.2,0.5,0.2,0.8V68.7z M32.7,64.7c0-0.2-0.1-0.4-0.2-0.6
			c-0.1-0.1-0.3-0.2-0.6-0.2c-0.2,0-0.4,0.1-0.6,0.2c-0.1,0.1-0.2,0.3-0.2,0.6v4c0,0.3,0.1,0.4,0.2,0.6c0.1,0.1,0.3,0.2,0.6,0.2
			c0.2,0,0.4-0.1,0.6-0.2c0.1-0.1,0.2-0.3,0.2-0.6V64.7z"/>
	</g>
	<g>
		<path class="st0" d="M21.7,42.9c-0.1,0-0.1,0.1-0.2,0.1c-0.1,0-0.2,0-0.3,0c-0.3,0-0.5-0.1-0.7-0.2c-0.2-0.1-0.4-0.2-0.5-0.4
			c-0.1-0.2-0.2-0.4-0.3-0.7c-0.1-0.3-0.1-0.6-0.1-0.9c0-0.4,0-0.7,0.1-1c0.1-0.3,0.2-0.6,0.4-0.8c0.2-0.2,0.4-0.4,0.6-0.5
			c0.3-0.1,0.6-0.2,0.9-0.2c0.7,0,1.2,0.2,1.5,0.6c0.3,0.4,0.5,1,0.5,1.7c0,0.3,0,0.7-0.1,1c-0.1,0.3-0.2,0.6-0.3,0.8l-1.7,3.7h-1.4
			L21.7,42.9L21.7,42.9z M21.7,42c0.3,0,0.5-0.1,0.6-0.3c0.1-0.2,0.2-0.5,0.2-0.9c0-0.4-0.1-0.7-0.2-0.9c-0.1-0.2-0.3-0.3-0.6-0.3
			c-0.3,0-0.5,0.1-0.6,0.3c-0.1,0.2-0.2,0.5-0.2,1c0,0.3,0.1,0.6,0.2,0.8C21.2,41.9,21.4,42,21.7,42z"/>
		<path class="st0" d="M28.8,44.3c0,0.3-0.1,0.6-0.2,0.8c-0.1,0.2-0.3,0.4-0.4,0.6c-0.2,0.2-0.4,0.3-0.6,0.4
			c-0.2,0.1-0.5,0.1-0.8,0.1c-0.3,0-0.5,0-0.8-0.1c-0.2-0.1-0.5-0.2-0.6-0.4c-0.2-0.2-0.3-0.4-0.4-0.6c-0.1-0.2-0.2-0.5-0.2-0.8v-4
			c0-0.3,0.1-0.6,0.2-0.8c0.1-0.2,0.3-0.4,0.4-0.6c0.2-0.2,0.4-0.3,0.6-0.4c0.2-0.1,0.5-0.1,0.8-0.1c0.3,0,0.5,0,0.8,0.1
			c0.2,0.1,0.5,0.2,0.6,0.4c0.2,0.2,0.3,0.4,0.4,0.6c0.1,0.2,0.2,0.5,0.2,0.8V44.3z M27.6,40.3c0-0.2-0.1-0.4-0.2-0.6
			c-0.1-0.1-0.3-0.2-0.6-0.2c-0.2,0-0.4,0.1-0.6,0.2c-0.1,0.1-0.2,0.3-0.2,0.6v4c0,0.3,0.1,0.4,0.2,0.6c0.1,0.1,0.3,0.2,0.6,0.2
			c0.2,0,0.4-0.1,0.6-0.2c0.1-0.1,0.2-0.3,0.2-0.6V40.3z"/>
		<path class="st0" d="M33.9,44.3c0,0.3-0.1,0.6-0.2,0.8c-0.1,0.2-0.3,0.4-0.4,0.6c-0.2,0.2-0.4,0.3-0.6,0.4
			c-0.2,0.1-0.5,0.1-0.8,0.1c-0.3,0-0.5,0-0.8-0.1c-0.2-0.1-0.5-0.2-0.6-0.4c-0.2-0.2-0.3-0.4-0.4-0.6c-0.1-0.2-0.2-0.5-0.2-0.8v-4
			c0-0.3,0.1-0.6,0.2-0.8c0.1-0.2,0.3-0.4,0.4-0.6c0.2-0.2,0.4-0.3,0.6-0.4c0.2-0.1,0.5-0.1,0.8-0.1c0.3,0,0.5,0,0.8,0.1
			c0.2,0.1,0.5,0.2,0.6,0.4c0.2,0.2,0.3,0.4,0.4,0.6c0.1,0.2,0.2,0.5,0.2,0.8V44.3z M32.7,40.3c0-0.2-0.1-0.4-0.2-0.6
			c-0.1-0.1-0.3-0.2-0.6-0.2c-0.2,0-0.4,0.1-0.6,0.2c-0.1,0.1-0.2,0.3-0.2,0.6v4c0,0.3,0.1,0.4,0.2,0.6c0.1,0.1,0.3,0.2,0.6,0.2
			c0.2,0,0.4-0.1,0.6-0.2c0.1-0.1,0.2-0.3,0.2-0.6V40.3z"/>
	</g>
	<g>
		<path class="st0" d="M16.8,21.8v-6.4l-1.1,0.8v-1.3l1.1-0.9H18v7.8H16.8z"/>
		<path class="st0" d="M23.6,19.9c0,0.3-0.1,0.6-0.2,0.8c-0.1,0.2-0.3,0.4-0.4,0.6c-0.2,0.2-0.4,0.3-0.6,0.4
			c-0.2,0.1-0.5,0.1-0.8,0.1c-0.3,0-0.5,0-0.8-0.1c-0.2-0.1-0.5-0.2-0.6-0.4c-0.2-0.2-0.3-0.4-0.4-0.6c-0.1-0.2-0.2-0.5-0.2-0.8v-4
			c0-0.3,0.1-0.6,0.2-0.8c0.1-0.2,0.3-0.4,0.4-0.6c0.2-0.2,0.4-0.3,0.6-0.4c0.2-0.1,0.5-0.1,0.8-0.1c0.3,0,0.5,0,0.8,0.1
			c0.2,0.1,0.5,0.2,0.6,0.4c0.2,0.2,0.3,0.4,0.4,0.6c0.1,0.2,0.2,0.5,0.2,0.8V19.9z M22.4,16c0-0.2-0.1-0.4-0.2-0.6
			c-0.1-0.1-0.3-0.2-0.6-0.2c-0.2,0-0.4,0.1-0.6,0.2c-0.1,0.1-0.2,0.3-0.2,0.6v4c0,0.3,0.1,0.4,0.2,0.6c0.1,0.1,0.3,0.2,0.6,0.2
			c0.2,0,0.4-0.1,0.6-0.2c0.1-0.1,0.2-0.3,0.2-0.6V16z"/>
		<path class="st0" d="M28.8,19.9c0,0.3-0.1,0.6-0.2,0.8c-0.1,0.2-0.3,0.4-0.4,0.6c-0.2,0.2-0.4,0.3-0.6,0.4
			c-0.2,0.1-0.5,0.1-0.8,0.1c-0.3,0-0.5,0-0.8-0.1c-0.2-0.1-0.5-0.2-0.6-0.4c-0.2-0.2-0.3-0.4-0.4-0.6c-0.1-0.2-0.2-0.5-0.2-0.8v-4
			c0-0.3,0.1-0.6,0.2-0.8c0.1-0.2,0.3-0.4,0.4-0.6c0.2-0.2,0.4-0.3,0.6-0.4c0.2-0.1,0.5-0.1,0.8-0.1c0.3,0,0.5,0,0.8,0.1
			c0.2,0.1,0.5,0.2,0.6,0.4c0.2,0.2,0.3,0.4,0.4,0.6c0.1,0.2,0.2,0.5,0.2,0.8V19.9z M27.6,16c0-0.2-0.1-0.4-0.2-0.6
			c-0.1-0.1-0.3-0.2-0.6-0.2c-0.2,0-0.4,0.1-0.6,0.2C26.1,15.5,26,15.7,26,16v4c0,0.3,0.1,0.4,0.2,0.6c0.1,0.1,0.3,0.2,0.6,0.2
			c0.2,0,0.4-0.1,0.6-0.2c0.1-0.1,0.2-0.3,0.2-0.6V16z"/>
		<path class="st0" d="M33.9,19.9c0,0.3-0.1,0.6-0.2,0.8c-0.1,0.2-0.3,0.4-0.4,0.6c-0.2,0.2-0.4,0.3-0.6,0.4
			c-0.2,0.1-0.5,0.1-0.8,0.1c-0.3,0-0.5,0-0.8-0.1c-0.2-0.1-0.5-0.2-0.6-0.4c-0.2-0.2-0.3-0.4-0.4-0.6c-0.1-0.2-0.2-0.5-0.2-0.8v-4
			c0-0.3,0.1-0.6,0.2-0.8c0.1-0.2,0.3-0.4,0.4-0.6c0.2-0.2,0.4-0.3,0.6-0.4c0.2-0.1,0.5-0.1,0.8-0.1c0.3,0,0.5,0,0.8,0.1
			c0.2,0.1,0.5,0.2,0.6,0.4c0.2,0.2,0.3,0.4,0.4,0.6c0.1,0.2,0.2,0.5,0.2,0.8V19.9z M32.7,16c0-0.2-0.1-0.4-0.2-0.6
			c-0.1-0.1-0.3-0.2-0.6-0.2c-0.2,0-0.4,0.1-0.6,0.2c-0.1,0.1-0.2,0.3-0.2,0.6v4c0,0.3,0.1,0.4,0.2,0.6c0.1,0.1,0.3,0.2,0.6,0.2
			c0.2,0,0.4-0.1,0.6-0.2c0.1-0.1,0.2-0.3,0.2-0.6V16z"/>
	</g>
	<g>
		<path class="st0" d="M33.9,263.8c0,0.3-0.1,0.6-0.2,0.8c-0.1,0.2-0.3,0.4-0.4,0.6c-0.2,0.2-0.4,0.3-0.6,0.4
			c-0.2,0.1-0.5,0.1-0.8,0.1c-0.3,0-0.5,0-0.8-0.1c-0.2-0.1-0.5-0.2-0.6-0.4c-0.2-0.2-0.3-0.4-0.4-0.6c-0.1-0.2-0.2-0.5-0.2-0.8v-4
			c0-0.3,0.1-0.6,0.2-0.8c0.1-0.2,0.3-0.4,0.4-0.6c0.2-0.2,0.4-0.3,0.6-0.4c0.2-0.1,0.5-0.1,0.8-0.1c0.3,0,0.5,0,0.8,0.1
			c0.2,0.1,0.5,0.2,0.6,0.4c0.2,0.2,0.3,0.4,0.4,0.6c0.1,0.2,0.2,0.5,0.2,0.8V263.8z M32.7,259.8c0-0.2-0.1-0.4-0.2-0.6
			c-0.1-0.1-0.3-0.2-0.6-0.2c-0.2,0-0.4,0.1-0.6,0.2c-0.1,0.1-0.2,0.3-0.2,0.6v4c0,0.3,0.1,0.4,0.2,0.6c0.1,0.1,0.3,0.2,0.6,0.2
			c0.2,0,0.4-0.1,0.6-0.2c0.1-0.1,0.2-0.3,0.2-0.6V259.8z"/>
	</g>
</g>
<g>
	<polygon class="st2" points="488,70.6 439.3,143.7 390.5,119.4 341.7,168.1 293,168.1 244.2,119.4 195.4,216.9 146.7,241.3 
		97.9,216.9 49.1,265.7 49.1,265.7 97.9,216.9 146.7,241.3 195.4,216.9 244.2,119.4 293,168.1 341.7,168.1 390.5,119.4 439.3,143.7 
		488,70.6 536.8,46.2 536.8,46.2 	"/>
	<path class="st5" d="M102.5,216.9c0,2.5-2,4.6-4.6,4.6c-2.5,0-4.6-2-4.6-4.6c0-2.5,2-4.6,4.6-4.6
		C100.4,212.3,102.5,214.4,102.5,216.9z"/>
	<path class="st5" d="M151.2,241.3c0,2.5-2,4.6-4.6,4.6s-4.6-2-4.6-4.6c0-2.5,2-4.6,4.6-4.6S151.2,238.8,151.2,241.3z"/>
	<path class="st5" d="M200,216.9c0,2.5-2,4.6-4.6,4.6c-2.5,0-4.6-2-4.6-4.6c0-2.5,2-4.6,4.6-4.6C197.9,212.3,200,214.4,200,216.9z"
		/>
	<path class="st5" d="M248.8,119.4c0,2.5-2,4.6-4.6,4.6c-2.5,0-4.6-2-4.6-4.6c0-2.5,2-4.6,4.6-4.6
		C246.7,114.8,248.8,116.8,248.8,119.4z"/>
	<path class="st5" d="M297.5,168.1c0,2.5-2,4.6-4.6,4.6c-2.5,0-4.6-2-4.6-4.6c0-2.5,2-4.6,4.6-4.6
		C295.5,163.6,297.5,165.6,297.5,168.1z"/>
	<path class="st5" d="M346.3,168.1c0,2.5-2,4.6-4.6,4.6c-2.5,0-4.6-2-4.6-4.6c0-2.5,2-4.6,4.6-4.6
		C344.2,163.6,346.3,165.6,346.3,168.1z"/>
	<path class="st5" d="M395.1,119.4c0,2.5-2,4.6-4.6,4.6c-2.5,0-4.6-2-4.6-4.6c0-2.5,2-4.6,4.6-4.6
		C393,114.8,395.1,116.8,395.1,119.4z"/>
	<path class="st5" d="M443.8,143.7c0,2.5-2,4.6-4.6,4.6c-2.5,0-4.6-2-4.6-4.6c0-2.5,2-4.6,4.6-4.6
		C441.8,139.2,443.8,141.2,443.8,143.7z"/>
	<path class="st5" d="M492.6,70.6c0,2.5-2,4.6-4.6,4.6c-2.5,0-4.6-2.1-4.6-4.6c0-2.5,2-4.6,4.6-4.6C490.5,66,492.6,68.1,492.6,70.6z
		"/>
	<path class="st5" d="M541.4,46.2c0,2.5-2,4.6-4.6,4.6c-2.5,0-4.6-2-4.6-4.6c0-2.5,2-4.6,4.6-4.6C539.3,41.6,541.4,43.7,541.4,46.2z
		"/>
</g>
<g>
	<polygon class="st2" points="488,119.4 439.3,119.4 390.5,192.5 341.7,143.7 293,192.5 244.2,168.1 195.4,192.5 146.7,216.9 
		97.9,192.5 49.1,265.7 49.1,265.7 97.9,192.5 146.7,216.9 195.4,192.5 244.2,168.1 293,192.5 341.7,143.7 390.5,192.5 439.3,119.4 
		488,119.4 536.8,21.8 536.8,21.8 	"/>
	<polygon class="st5" points="92.3,197.3 97.9,187.7 103.4,197.3 	"/>
	<polygon class="st5" points="141.1,221.7 146.7,212.1 152.2,221.7 	"/>
	<polygon class="st5" points="238.6,172.9 244.2,163.3 249.7,172.9 	"/>
	<polygon class="st5" points="287.4,197.3 293,187.7 298.5,197.3 	"/>
	<polygon class="st5" points="336.2,148.6 341.7,138.9 347.3,148.6 	"/>
	<polygon class="st5" points="384.9,197.3 390.5,187.7 396,197.3 	"/>
	<polygon class="st5" points="433.7,124.2 439.3,114.6 444.8,124.2 	"/>
	<polygon class="st5" points="482.5,124.2 488,114.6 493.6,124.2 	"/>
	<polygon class="st5" points="531.2,26.6 536.8,17 542.3,26.6 	"/>
	<polygon class="st5" points="189.9,197.3 195.4,187.7 201,197.3 	"/>
</g>
</svg>
